<mxfile host="app.diagrams.net" modified="2022-02-20T20:34:59.363Z" agent="5.0 (X11; Linux x86_64) AppleWebKit/537.36 (KHTML, like Gecko) Chrome/98.0.4758.102 Safari/537.36" etag="lQ2xZk7B5nn3zXUB-Var" version="16.5.6" type="github">
  <diagram id="RHUD8mf-uBcJdWSbI8hs" name="Page-1">
    <mxGraphModel dx="1278" dy="912" grid="1" gridSize="10" guides="1" tooltips="1" connect="1" arrows="1" fold="1" page="1" pageScale="1" pageWidth="1654" pageHeight="2336" math="0" shadow="0">
      <root>
        <mxCell id="0" />
        <mxCell id="1" parent="0" />
        <mxCell id="Gvq7CTQBBd0UtpshO9xt-1" value="1&lt;span style=&quot;white-space: pre&quot;&gt; &lt;span style=&quot;white-space: pre&quot;&gt; &lt;/span&gt;0&lt;/span&gt;" style="shape=trapezoid;perimeter=trapezoidPerimeter;whiteSpace=wrap;html=1;fixedSize=1;direction=west;" parent="1" vertex="1">
          <mxGeometry x="720" y="230" width="120" height="60" as="geometry" />
        </mxCell>
        <mxCell id="Gvq7CTQBBd0UtpshO9xt-19" value="" style="edgeStyle=orthogonalEdgeStyle;rounded=0;orthogonalLoop=1;jettySize=auto;html=1;entryX=0.75;entryY=1;entryDx=0;entryDy=0;" parent="1" source="Gvq7CTQBBd0UtpshO9xt-2" target="Gvq7CTQBBd0UtpshO9xt-1" edge="1">
          <mxGeometry relative="1" as="geometry" />
        </mxCell>
        <mxCell id="Gvq7CTQBBd0UtpshO9xt-2" value="1&lt;span style=&quot;white-space: pre&quot;&gt; &lt;/span&gt;&lt;span style=&quot;white-space: pre&quot;&gt; &lt;/span&gt;0" style="shape=trapezoid;perimeter=trapezoidPerimeter;whiteSpace=wrap;html=1;fixedSize=1;direction=west;" parent="1" vertex="1">
          <mxGeometry x="690" y="140" width="120" height="60" as="geometry" />
        </mxCell>
        <mxCell id="Gvq7CTQBBd0UtpshO9xt-4" value="ShAmt[3:0]" style="text;html=1;align=center;verticalAlign=middle;resizable=0;points=[];autosize=1;strokeColor=none;fillColor=none;" parent="1" vertex="1">
          <mxGeometry x="20" y="230" width="70" height="20" as="geometry" />
        </mxCell>
        <mxCell id="Gvq7CTQBBd0UtpshO9xt-7" value="Oper[0]" style="text;html=1;align=center;verticalAlign=middle;resizable=0;points=[];autosize=1;strokeColor=none;fillColor=none;" parent="1" vertex="1">
          <mxGeometry x="25" y="140" width="60" height="20" as="geometry" />
        </mxCell>
        <mxCell id="Gvq7CTQBBd0UtpshO9xt-13" value="" style="edgeStyle=orthogonalEdgeStyle;rounded=0;orthogonalLoop=1;jettySize=auto;html=1;entryX=0.75;entryY=1;entryDx=0;entryDy=0;" parent="1" source="Gvq7CTQBBd0UtpshO9xt-10" target="Gvq7CTQBBd0UtpshO9xt-2" edge="1">
          <mxGeometry relative="1" as="geometry" />
        </mxCell>
        <mxCell id="Gvq7CTQBBd0UtpshO9xt-10" value="1&#39;h0" style="text;html=1;align=center;verticalAlign=middle;resizable=0;points=[];autosize=1;strokeColor=none;fillColor=none;" parent="1" vertex="1">
          <mxGeometry x="700" y="70" width="40" height="20" as="geometry" />
        </mxCell>
        <mxCell id="Gvq7CTQBBd0UtpshO9xt-18" value="" style="edgeStyle=orthogonalEdgeStyle;rounded=0;orthogonalLoop=1;jettySize=auto;html=1;entryX=0.21;entryY=1.051;entryDx=0;entryDy=0;entryPerimeter=0;" parent="1" source="Gvq7CTQBBd0UtpshO9xt-16" target="Gvq7CTQBBd0UtpshO9xt-2" edge="1">
          <mxGeometry relative="1" as="geometry" />
        </mxCell>
        <mxCell id="Gvq7CTQBBd0UtpshO9xt-16" value="1{r_shift0[15]}, r_shift0[15:1]" style="text;html=1;align=center;verticalAlign=middle;resizable=0;points=[];autosize=1;strokeColor=none;fillColor=none;" parent="1" vertex="1">
          <mxGeometry x="700" y="30" width="170" height="20" as="geometry" />
        </mxCell>
        <mxCell id="Gvq7CTQBBd0UtpshO9xt-20" value="" style="endArrow=classic;html=1;rounded=0;entryX=1;entryY=0.5;entryDx=0;entryDy=0;" parent="1" target="Gvq7CTQBBd0UtpshO9xt-1" edge="1">
          <mxGeometry width="50" height="50" relative="1" as="geometry">
            <mxPoint x="160" y="260" as="sourcePoint" />
            <mxPoint x="780" y="160" as="targetPoint" />
          </mxGeometry>
        </mxCell>
        <mxCell id="Gvq7CTQBBd0UtpshO9xt-22" value="" style="edgeStyle=orthogonalEdgeStyle;rounded=0;orthogonalLoop=1;jettySize=auto;html=1;" parent="1" source="Gvq7CTQBBd0UtpshO9xt-21" target="Gvq7CTQBBd0UtpshO9xt-1" edge="1">
          <mxGeometry relative="1" as="geometry">
            <Array as="points">
              <mxPoint x="815" y="230" />
              <mxPoint x="815" y="230" />
            </Array>
          </mxGeometry>
        </mxCell>
        <mxCell id="Gvq7CTQBBd0UtpshO9xt-21" value="r_shift0" style="text;html=1;align=center;verticalAlign=middle;resizable=0;points=[];autosize=1;strokeColor=none;fillColor=none;" parent="1" vertex="1">
          <mxGeometry x="790" y="180" width="50" height="20" as="geometry" />
        </mxCell>
        <mxCell id="Gvq7CTQBBd0UtpshO9xt-24" value="" style="edgeStyle=orthogonalEdgeStyle;rounded=0;orthogonalLoop=1;jettySize=auto;html=1;" parent="1" source="Gvq7CTQBBd0UtpshO9xt-1" target="Gvq7CTQBBd0UtpshO9xt-23" edge="1">
          <mxGeometry relative="1" as="geometry" />
        </mxCell>
        <mxCell id="Gvq7CTQBBd0UtpshO9xt-23" value="r_shift1" style="text;html=1;align=center;verticalAlign=middle;resizable=0;points=[];autosize=1;strokeColor=none;fillColor=none;" parent="1" vertex="1">
          <mxGeometry x="755" y="330" width="50" height="20" as="geometry" />
        </mxCell>
        <mxCell id="Gvq7CTQBBd0UtpshO9xt-25" value="1&lt;span style=&quot;white-space: pre&quot;&gt; &lt;span style=&quot;white-space: pre&quot;&gt; &lt;/span&gt;0&lt;/span&gt;" style="shape=trapezoid;perimeter=trapezoidPerimeter;whiteSpace=wrap;html=1;fixedSize=1;direction=west;" parent="1" vertex="1">
          <mxGeometry x="580" y="510" width="120" height="60" as="geometry" />
        </mxCell>
        <mxCell id="Gvq7CTQBBd0UtpshO9xt-26" value="" style="edgeStyle=orthogonalEdgeStyle;rounded=0;orthogonalLoop=1;jettySize=auto;html=1;entryX=0.75;entryY=1;entryDx=0;entryDy=0;" parent="1" source="Gvq7CTQBBd0UtpshO9xt-27" target="Gvq7CTQBBd0UtpshO9xt-25" edge="1">
          <mxGeometry relative="1" as="geometry" />
        </mxCell>
        <mxCell id="Gvq7CTQBBd0UtpshO9xt-27" value="1&lt;span style=&quot;white-space: pre&quot;&gt; &lt;/span&gt;&lt;span style=&quot;white-space: pre&quot;&gt; &lt;/span&gt;0" style="shape=trapezoid;perimeter=trapezoidPerimeter;whiteSpace=wrap;html=1;fixedSize=1;direction=west;" parent="1" vertex="1">
          <mxGeometry x="550" y="420" width="120" height="60" as="geometry" />
        </mxCell>
        <mxCell id="Gvq7CTQBBd0UtpshO9xt-29" value="" style="endArrow=classic;html=1;rounded=0;entryX=1;entryY=0.5;entryDx=0;entryDy=0;" parent="1" edge="1">
          <mxGeometry width="50" height="50" relative="1" as="geometry">
            <mxPoint x="450" y="449.5" as="sourcePoint" />
            <mxPoint x="560" y="449.5" as="targetPoint" />
            <Array as="points">
              <mxPoint x="450" y="170" />
              <mxPoint x="450" y="449.5" />
            </Array>
          </mxGeometry>
        </mxCell>
        <mxCell id="Gvq7CTQBBd0UtpshO9xt-31" value="" style="edgeStyle=orthogonalEdgeStyle;rounded=0;orthogonalLoop=1;jettySize=auto;html=1;entryX=0.75;entryY=1;entryDx=0;entryDy=0;" parent="1" source="Gvq7CTQBBd0UtpshO9xt-32" target="Gvq7CTQBBd0UtpshO9xt-27" edge="1">
          <mxGeometry relative="1" as="geometry" />
        </mxCell>
        <mxCell id="Gvq7CTQBBd0UtpshO9xt-32" value="2&#39;h0" style="text;html=1;align=center;verticalAlign=middle;resizable=0;points=[];autosize=1;strokeColor=none;fillColor=none;" parent="1" vertex="1">
          <mxGeometry x="560" y="350" width="40" height="20" as="geometry" />
        </mxCell>
        <mxCell id="Gvq7CTQBBd0UtpshO9xt-33" value="" style="edgeStyle=orthogonalEdgeStyle;rounded=0;orthogonalLoop=1;jettySize=auto;html=1;entryX=0.21;entryY=1.051;entryDx=0;entryDy=0;entryPerimeter=0;" parent="1" source="Gvq7CTQBBd0UtpshO9xt-34" target="Gvq7CTQBBd0UtpshO9xt-27" edge="1">
          <mxGeometry relative="1" as="geometry" />
        </mxCell>
        <mxCell id="Gvq7CTQBBd0UtpshO9xt-34" value="2{r_shift1[15]}, r_shift1[15:2]" style="text;html=1;align=center;verticalAlign=middle;resizable=0;points=[];autosize=1;strokeColor=none;fillColor=none;" parent="1" vertex="1">
          <mxGeometry x="560" y="310" width="170" height="20" as="geometry" />
        </mxCell>
        <mxCell id="Gvq7CTQBBd0UtpshO9xt-35" value="" style="endArrow=classic;html=1;rounded=0;entryX=1;entryY=0.5;entryDx=0;entryDy=0;" parent="1" target="Gvq7CTQBBd0UtpshO9xt-25" edge="1">
          <mxGeometry width="50" height="50" relative="1" as="geometry">
            <mxPoint x="410" y="260" as="sourcePoint" />
            <mxPoint x="640" y="440" as="targetPoint" />
            <Array as="points">
              <mxPoint x="410" y="540" />
            </Array>
          </mxGeometry>
        </mxCell>
        <mxCell id="Gvq7CTQBBd0UtpshO9xt-36" value="" style="edgeStyle=orthogonalEdgeStyle;rounded=0;orthogonalLoop=1;jettySize=auto;html=1;exitX=0.5;exitY=1.05;exitDx=0;exitDy=0;exitPerimeter=0;" parent="1" source="Gvq7CTQBBd0UtpshO9xt-23" target="Gvq7CTQBBd0UtpshO9xt-25" edge="1">
          <mxGeometry relative="1" as="geometry">
            <Array as="points">
              <mxPoint x="780" y="460" />
              <mxPoint x="670" y="460" />
            </Array>
            <mxPoint x="675" y="480" as="sourcePoint" />
          </mxGeometry>
        </mxCell>
        <mxCell id="Gvq7CTQBBd0UtpshO9xt-38" value="" style="edgeStyle=orthogonalEdgeStyle;rounded=0;orthogonalLoop=1;jettySize=auto;html=1;" parent="1" source="Gvq7CTQBBd0UtpshO9xt-25" target="Gvq7CTQBBd0UtpshO9xt-39" edge="1">
          <mxGeometry relative="1" as="geometry" />
        </mxCell>
        <mxCell id="Gvq7CTQBBd0UtpshO9xt-39" value="r_shift2" style="text;html=1;align=center;verticalAlign=middle;resizable=0;points=[];autosize=1;strokeColor=none;fillColor=none;" parent="1" vertex="1">
          <mxGeometry x="615" y="610" width="50" height="20" as="geometry" />
        </mxCell>
        <mxCell id="Gvq7CTQBBd0UtpshO9xt-40" value="" style="endArrow=classic;html=1;rounded=0;entryX=1;entryY=0.5;entryDx=0;entryDy=0;" parent="1" target="Gvq7CTQBBd0UtpshO9xt-2" edge="1">
          <mxGeometry width="50" height="50" relative="1" as="geometry">
            <mxPoint x="50" y="170" as="sourcePoint" />
            <mxPoint x="390" y="140" as="targetPoint" />
          </mxGeometry>
        </mxCell>
        <mxCell id="Gvq7CTQBBd0UtpshO9xt-41" value="" style="endArrow=classic;html=1;rounded=0;entryX=0.56;entryY=-0.15;entryDx=0;entryDy=0;entryPerimeter=0;" parent="1" target="Gvq7CTQBBd0UtpshO9xt-21" edge="1">
          <mxGeometry width="50" height="50" relative="1" as="geometry">
            <mxPoint x="80" y="100" as="sourcePoint" />
            <mxPoint x="230" y="80" as="targetPoint" />
            <Array as="points">
              <mxPoint x="818" y="100" />
            </Array>
          </mxGeometry>
        </mxCell>
        <mxCell id="Gvq7CTQBBd0UtpshO9xt-42" value="In" style="text;html=1;align=center;verticalAlign=middle;resizable=0;points=[];autosize=1;strokeColor=none;fillColor=none;" parent="1" vertex="1">
          <mxGeometry x="40" y="90" width="30" height="20" as="geometry" />
        </mxCell>
        <mxCell id="Gvq7CTQBBd0UtpshO9xt-43" value="1&lt;span style=&quot;white-space: pre&quot;&gt; &lt;span style=&quot;white-space: pre&quot;&gt; &lt;/span&gt;0&lt;/span&gt;" style="shape=trapezoid;perimeter=trapezoidPerimeter;whiteSpace=wrap;html=1;fixedSize=1;direction=west;" parent="1" vertex="1">
          <mxGeometry x="430" y="770" width="120" height="60" as="geometry" />
        </mxCell>
        <mxCell id="Gvq7CTQBBd0UtpshO9xt-44" value="" style="edgeStyle=orthogonalEdgeStyle;rounded=0;orthogonalLoop=1;jettySize=auto;html=1;entryX=0.75;entryY=1;entryDx=0;entryDy=0;" parent="1" source="Gvq7CTQBBd0UtpshO9xt-45" target="Gvq7CTQBBd0UtpshO9xt-43" edge="1">
          <mxGeometry relative="1" as="geometry" />
        </mxCell>
        <mxCell id="Gvq7CTQBBd0UtpshO9xt-45" value="1&lt;span style=&quot;white-space: pre&quot;&gt; &lt;/span&gt;&lt;span style=&quot;white-space: pre&quot;&gt; &lt;/span&gt;0" style="shape=trapezoid;perimeter=trapezoidPerimeter;whiteSpace=wrap;html=1;fixedSize=1;direction=west;" parent="1" vertex="1">
          <mxGeometry x="400" y="680" width="120" height="60" as="geometry" />
        </mxCell>
        <mxCell id="Gvq7CTQBBd0UtpshO9xt-46" value="" style="edgeStyle=orthogonalEdgeStyle;rounded=0;orthogonalLoop=1;jettySize=auto;html=1;entryX=0.75;entryY=1;entryDx=0;entryDy=0;" parent="1" source="Gvq7CTQBBd0UtpshO9xt-47" target="Gvq7CTQBBd0UtpshO9xt-45" edge="1">
          <mxGeometry relative="1" as="geometry" />
        </mxCell>
        <mxCell id="Gvq7CTQBBd0UtpshO9xt-47" value="4&#39;h0" style="text;html=1;align=center;verticalAlign=middle;resizable=0;points=[];autosize=1;strokeColor=none;fillColor=none;" parent="1" vertex="1">
          <mxGeometry x="410" y="610" width="40" height="20" as="geometry" />
        </mxCell>
        <mxCell id="Gvq7CTQBBd0UtpshO9xt-48" value="" style="edgeStyle=orthogonalEdgeStyle;rounded=0;orthogonalLoop=1;jettySize=auto;html=1;entryX=0.21;entryY=1.051;entryDx=0;entryDy=0;entryPerimeter=0;" parent="1" source="Gvq7CTQBBd0UtpshO9xt-49" target="Gvq7CTQBBd0UtpshO9xt-45" edge="1">
          <mxGeometry relative="1" as="geometry" />
        </mxCell>
        <mxCell id="Gvq7CTQBBd0UtpshO9xt-49" value="4{r_shift2[15]}, r_shift2[15:4]" style="text;html=1;align=center;verticalAlign=middle;resizable=0;points=[];autosize=1;strokeColor=none;fillColor=none;" parent="1" vertex="1">
          <mxGeometry x="410" y="570" width="170" height="20" as="geometry" />
        </mxCell>
        <mxCell id="Gvq7CTQBBd0UtpshO9xt-50" value="" style="edgeStyle=orthogonalEdgeStyle;rounded=0;orthogonalLoop=1;jettySize=auto;html=1;" parent="1" source="Gvq7CTQBBd0UtpshO9xt-43" target="Gvq7CTQBBd0UtpshO9xt-51" edge="1">
          <mxGeometry relative="1" as="geometry" />
        </mxCell>
        <mxCell id="Gvq7CTQBBd0UtpshO9xt-51" value="r_shift4" style="text;html=1;align=center;verticalAlign=middle;resizable=0;points=[];autosize=1;strokeColor=none;fillColor=none;" parent="1" vertex="1">
          <mxGeometry x="465" y="870" width="50" height="20" as="geometry" />
        </mxCell>
        <mxCell id="Gvq7CTQBBd0UtpshO9xt-52" value="1&lt;span style=&quot;white-space: pre&quot;&gt; &lt;span style=&quot;white-space: pre&quot;&gt; &lt;/span&gt;0&lt;/span&gt;" style="shape=trapezoid;perimeter=trapezoidPerimeter;whiteSpace=wrap;html=1;fixedSize=1;direction=west;" parent="1" vertex="1">
          <mxGeometry x="290" y="1020" width="120" height="60" as="geometry" />
        </mxCell>
        <mxCell id="Gvq7CTQBBd0UtpshO9xt-53" value="" style="edgeStyle=orthogonalEdgeStyle;rounded=0;orthogonalLoop=1;jettySize=auto;html=1;entryX=0.75;entryY=1;entryDx=0;entryDy=0;" parent="1" source="Gvq7CTQBBd0UtpshO9xt-54" target="Gvq7CTQBBd0UtpshO9xt-52" edge="1">
          <mxGeometry relative="1" as="geometry" />
        </mxCell>
        <mxCell id="Gvq7CTQBBd0UtpshO9xt-54" value="1&lt;span style=&quot;white-space: pre&quot;&gt; &lt;/span&gt;&lt;span style=&quot;white-space: pre&quot;&gt; &lt;/span&gt;0" style="shape=trapezoid;perimeter=trapezoidPerimeter;whiteSpace=wrap;html=1;fixedSize=1;direction=west;" parent="1" vertex="1">
          <mxGeometry x="260" y="930" width="120" height="60" as="geometry" />
        </mxCell>
        <mxCell id="Gvq7CTQBBd0UtpshO9xt-55" value="" style="edgeStyle=orthogonalEdgeStyle;rounded=0;orthogonalLoop=1;jettySize=auto;html=1;entryX=0.75;entryY=1;entryDx=0;entryDy=0;" parent="1" source="Gvq7CTQBBd0UtpshO9xt-56" target="Gvq7CTQBBd0UtpshO9xt-54" edge="1">
          <mxGeometry relative="1" as="geometry" />
        </mxCell>
        <mxCell id="Gvq7CTQBBd0UtpshO9xt-56" value="8&#39;h0" style="text;html=1;align=center;verticalAlign=middle;resizable=0;points=[];autosize=1;strokeColor=none;fillColor=none;" parent="1" vertex="1">
          <mxGeometry x="270" y="860" width="40" height="20" as="geometry" />
        </mxCell>
        <mxCell id="Gvq7CTQBBd0UtpshO9xt-57" value="" style="edgeStyle=orthogonalEdgeStyle;rounded=0;orthogonalLoop=1;jettySize=auto;html=1;entryX=0.21;entryY=1.051;entryDx=0;entryDy=0;entryPerimeter=0;" parent="1" source="Gvq7CTQBBd0UtpshO9xt-58" target="Gvq7CTQBBd0UtpshO9xt-54" edge="1">
          <mxGeometry relative="1" as="geometry" />
        </mxCell>
        <mxCell id="Gvq7CTQBBd0UtpshO9xt-58" value="8{r_shift4[15]}, r_shift4[15:8]" style="text;html=1;align=center;verticalAlign=middle;resizable=0;points=[];autosize=1;strokeColor=none;fillColor=none;" parent="1" vertex="1">
          <mxGeometry x="270" y="820" width="170" height="20" as="geometry" />
        </mxCell>
        <mxCell id="Gvq7CTQBBd0UtpshO9xt-59" value="" style="edgeStyle=orthogonalEdgeStyle;rounded=0;orthogonalLoop=1;jettySize=auto;html=1;" parent="1" source="Gvq7CTQBBd0UtpshO9xt-52" target="Gvq7CTQBBd0UtpshO9xt-60" edge="1">
          <mxGeometry relative="1" as="geometry" />
        </mxCell>
        <mxCell id="Gvq7CTQBBd0UtpshO9xt-60" value="r_shift8" style="text;html=1;align=center;verticalAlign=middle;resizable=0;points=[];autosize=1;strokeColor=none;fillColor=none;" parent="1" vertex="1">
          <mxGeometry x="325" y="1120" width="50" height="20" as="geometry" />
        </mxCell>
        <mxCell id="Gvq7CTQBBd0UtpshO9xt-61" value="" style="endArrow=classic;html=1;rounded=0;entryX=1;entryY=0.5;entryDx=0;entryDy=0;" parent="1" target="Gvq7CTQBBd0UtpshO9xt-45" edge="1">
          <mxGeometry width="50" height="50" relative="1" as="geometry">
            <mxPoint x="360" y="170" as="sourcePoint" />
            <mxPoint x="390" y="660" as="targetPoint" />
            <Array as="points">
              <mxPoint x="360" y="710" />
            </Array>
          </mxGeometry>
        </mxCell>
        <mxCell id="Gvq7CTQBBd0UtpshO9xt-62" value="" style="endArrow=classic;html=1;rounded=0;entryX=0.917;entryY=0.5;entryDx=0;entryDy=0;entryPerimeter=0;" parent="1" target="Gvq7CTQBBd0UtpshO9xt-43" edge="1">
          <mxGeometry width="50" height="50" relative="1" as="geometry">
            <mxPoint x="320" y="260" as="sourcePoint" />
            <mxPoint x="250" y="480" as="targetPoint" />
            <Array as="points">
              <mxPoint x="320" y="800" />
            </Array>
          </mxGeometry>
        </mxCell>
        <mxCell id="Gvq7CTQBBd0UtpshO9xt-63" value="" style="endArrow=classic;html=1;rounded=0;entryX=1;entryY=0.5;entryDx=0;entryDy=0;" parent="1" edge="1">
          <mxGeometry width="50" height="50" relative="1" as="geometry">
            <mxPoint x="220" y="170" as="sourcePoint" />
            <mxPoint x="270.0000000000002" y="960" as="targetPoint" />
            <Array as="points">
              <mxPoint x="220" y="960" />
            </Array>
          </mxGeometry>
        </mxCell>
        <mxCell id="Gvq7CTQBBd0UtpshO9xt-64" value="" style="endArrow=classic;html=1;rounded=0;entryX=1;entryY=0.5;entryDx=0;entryDy=0;" parent="1" edge="1">
          <mxGeometry width="50" height="50" relative="1" as="geometry">
            <mxPoint x="160" y="260" as="sourcePoint" />
            <mxPoint x="300.0000000000002" y="1050" as="targetPoint" />
            <Array as="points">
              <mxPoint x="160" y="1050" />
            </Array>
          </mxGeometry>
        </mxCell>
        <mxCell id="Gvq7CTQBBd0UtpshO9xt-65" value="" style="edgeStyle=orthogonalEdgeStyle;rounded=0;orthogonalLoop=1;jettySize=auto;html=1;exitX=0.501;exitY=1;exitDx=0;exitDy=0;exitPerimeter=0;" parent="1" source="Gvq7CTQBBd0UtpshO9xt-39" edge="1">
          <mxGeometry relative="1" as="geometry">
            <Array as="points">
              <mxPoint x="640" y="640" />
              <mxPoint x="640" y="719" />
              <mxPoint x="515" y="719" />
            </Array>
            <mxPoint x="640" y="640" as="sourcePoint" />
            <mxPoint x="515" y="769" as="targetPoint" />
          </mxGeometry>
        </mxCell>
        <mxCell id="Gvq7CTQBBd0UtpshO9xt-66" value="" style="edgeStyle=orthogonalEdgeStyle;rounded=0;orthogonalLoop=1;jettySize=auto;html=1;exitX=0.5;exitY=1;exitDx=0;exitDy=0;exitPerimeter=0;" parent="1" source="Gvq7CTQBBd0UtpshO9xt-51" edge="1">
          <mxGeometry relative="1" as="geometry">
            <Array as="points">
              <mxPoint x="490" y="970" />
              <mxPoint x="380" y="970" />
            </Array>
            <mxPoint x="490" y="900" as="sourcePoint" />
            <mxPoint x="380" y="1020" as="targetPoint" />
          </mxGeometry>
        </mxCell>
        <mxCell id="Gvq7CTQBBd0UtpshO9xt-70" value="" style="endArrow=none;html=1;rounded=0;strokeWidth=6;" parent="1" edge="1">
          <mxGeometry width="50" height="50" relative="1" as="geometry">
            <mxPoint x="50" y="260" as="sourcePoint" />
            <mxPoint x="410" y="260" as="targetPoint" />
          </mxGeometry>
        </mxCell>
        <mxCell id="Gvq7CTQBBd0UtpshO9xt-71" value="ShAmt[3]" style="text;html=1;align=center;verticalAlign=middle;resizable=0;points=[];autosize=1;strokeColor=none;fillColor=none;" parent="1" vertex="1">
          <mxGeometry x="180" y="1020" width="60" height="20" as="geometry" />
        </mxCell>
        <mxCell id="Gvq7CTQBBd0UtpshO9xt-72" value="ShAmt[2]" style="text;html=1;align=center;verticalAlign=middle;resizable=0;points=[];autosize=1;strokeColor=none;fillColor=none;" parent="1" vertex="1">
          <mxGeometry x="350" y="770" width="60" height="20" as="geometry" />
        </mxCell>
        <mxCell id="Gvq7CTQBBd0UtpshO9xt-73" value="ShAmt[1]" style="text;html=1;align=center;verticalAlign=middle;resizable=0;points=[];autosize=1;strokeColor=none;fillColor=none;" parent="1" vertex="1">
          <mxGeometry x="490" y="520" width="60" height="20" as="geometry" />
        </mxCell>
        <mxCell id="Gvq7CTQBBd0UtpshO9xt-74" value="&lt;span style=&quot;color: rgb(0 , 0 , 0) ; font-family: &amp;#34;helvetica&amp;#34; ; font-size: 12px ; font-style: normal ; font-weight: 400 ; letter-spacing: normal ; text-align: center ; text-indent: 0px ; text-transform: none ; word-spacing: 0px ; background-color: rgb(248 , 249 , 250) ; display: inline ; float: none&quot;&gt;ShAmt[0]&lt;/span&gt;" style="text;whiteSpace=wrap;html=1;" parent="1" vertex="1">
          <mxGeometry x="640" y="225" width="70" height="30" as="geometry" />
        </mxCell>
        <mxCell id="Gvq7CTQBBd0UtpshO9xt-75" value="1&lt;span style=&quot;white-space: pre&quot;&gt; &lt;span style=&quot;white-space: pre&quot;&gt; &lt;/span&gt;0&lt;/span&gt;" style="shape=trapezoid;perimeter=trapezoidPerimeter;whiteSpace=wrap;html=1;fixedSize=1;direction=west;" parent="1" vertex="1">
          <mxGeometry x="750" y="1258" width="120" height="60" as="geometry" />
        </mxCell>
        <mxCell id="Gvq7CTQBBd0UtpshO9xt-76" value="" style="edgeStyle=orthogonalEdgeStyle;rounded=0;orthogonalLoop=1;jettySize=auto;html=1;entryX=0.75;entryY=1;entryDx=0;entryDy=0;" parent="1" source="Gvq7CTQBBd0UtpshO9xt-77" target="Gvq7CTQBBd0UtpshO9xt-75" edge="1">
          <mxGeometry relative="1" as="geometry" />
        </mxCell>
        <mxCell id="Gvq7CTQBBd0UtpshO9xt-77" value="1&lt;span style=&quot;white-space: pre&quot;&gt; &lt;/span&gt;&lt;span style=&quot;white-space: pre&quot;&gt; &lt;/span&gt;0" style="shape=trapezoid;perimeter=trapezoidPerimeter;whiteSpace=wrap;html=1;fixedSize=1;direction=west;" parent="1" vertex="1">
          <mxGeometry x="720" y="1168" width="120" height="60" as="geometry" />
        </mxCell>
        <mxCell id="Gvq7CTQBBd0UtpshO9xt-78" value="" style="edgeStyle=orthogonalEdgeStyle;rounded=0;orthogonalLoop=1;jettySize=auto;html=1;" parent="1" source="Gvq7CTQBBd0UtpshO9xt-75" target="Gvq7CTQBBd0UtpshO9xt-79" edge="1">
          <mxGeometry relative="1" as="geometry" />
        </mxCell>
        <mxCell id="Gvq7CTQBBd0UtpshO9xt-79" value="l_shift1" style="text;html=1;align=center;verticalAlign=middle;resizable=0;points=[];autosize=1;strokeColor=none;fillColor=none;" parent="1" vertex="1">
          <mxGeometry x="785" y="1358" width="50" height="20" as="geometry" />
        </mxCell>
        <mxCell id="Gvq7CTQBBd0UtpshO9xt-80" value="" style="endArrow=classic;html=1;rounded=0;strokeWidth=1;" parent="1" edge="1">
          <mxGeometry width="50" height="50" relative="1" as="geometry">
            <mxPoint x="851" y="100" as="sourcePoint" />
            <mxPoint x="851" y="1210" as="targetPoint" />
            <Array as="points">
              <mxPoint x="851" y="100" />
            </Array>
          </mxGeometry>
        </mxCell>
        <mxCell id="Gvq7CTQBBd0UtpshO9xt-81" value="" style="endArrow=none;html=1;rounded=0;strokeWidth=1;" parent="1" edge="1">
          <mxGeometry width="50" height="50" relative="1" as="geometry">
            <mxPoint x="814" y="99.97" as="sourcePoint" />
            <mxPoint x="851.8498498498499" y="100.02" as="targetPoint" />
          </mxGeometry>
        </mxCell>
        <mxCell id="Gvq7CTQBBd0UtpshO9xt-83" value="" style="edgeStyle=orthogonalEdgeStyle;rounded=0;orthogonalLoop=1;jettySize=auto;html=1;strokeWidth=1;" parent="1" source="Gvq7CTQBBd0UtpshO9xt-82" edge="1">
          <mxGeometry relative="1" as="geometry">
            <mxPoint x="850" y="1260" as="targetPoint" />
          </mxGeometry>
        </mxCell>
        <mxCell id="Gvq7CTQBBd0UtpshO9xt-82" value="l_shift0" style="text;html=1;align=center;verticalAlign=middle;resizable=0;points=[];autosize=1;strokeColor=none;fillColor=none;" parent="1" vertex="1">
          <mxGeometry x="825" y="1220" width="50" height="20" as="geometry" />
        </mxCell>
        <mxCell id="Gvq7CTQBBd0UtpshO9xt-84" value="" style="endArrow=classic;html=1;rounded=0;strokeWidth=1;entryX=1;entryY=0.5;entryDx=0;entryDy=0;" parent="1" target="Gvq7CTQBBd0UtpshO9xt-77" edge="1">
          <mxGeometry width="50" height="50" relative="1" as="geometry">
            <mxPoint x="120" y="1198" as="sourcePoint" />
            <mxPoint x="670" y="1190" as="targetPoint" />
          </mxGeometry>
        </mxCell>
        <mxCell id="Gvq7CTQBBd0UtpshO9xt-85" value="" style="endArrow=none;html=1;rounded=0;strokeWidth=1;" parent="1" edge="1">
          <mxGeometry width="50" height="50" relative="1" as="geometry">
            <mxPoint x="120" y="1199" as="sourcePoint" />
            <mxPoint x="120" y="170" as="targetPoint" />
          </mxGeometry>
        </mxCell>
        <mxCell id="Gvq7CTQBBd0UtpshO9xt-88" style="edgeStyle=orthogonalEdgeStyle;rounded=0;orthogonalLoop=1;jettySize=auto;html=1;strokeWidth=1;" parent="1" source="Gvq7CTQBBd0UtpshO9xt-86" edge="1">
          <mxGeometry relative="1" as="geometry">
            <mxPoint x="810" y="1170" as="targetPoint" />
            <Array as="points">
              <mxPoint x="810" y="1170" />
            </Array>
          </mxGeometry>
        </mxCell>
        <mxCell id="Gvq7CTQBBd0UtpshO9xt-86" value="l_shift0[15:15]" style="text;html=1;align=center;verticalAlign=middle;resizable=0;points=[];autosize=1;strokeColor=none;fillColor=none;" parent="1" vertex="1">
          <mxGeometry x="765" y="1110" width="90" height="20" as="geometry" />
        </mxCell>
        <mxCell id="Gvq7CTQBBd0UtpshO9xt-90" value="" style="edgeStyle=orthogonalEdgeStyle;rounded=0;orthogonalLoop=1;jettySize=auto;html=1;strokeWidth=1;entryX=0.813;entryY=1.037;entryDx=0;entryDy=0;entryPerimeter=0;" parent="1" source="Gvq7CTQBBd0UtpshO9xt-89" target="Gvq7CTQBBd0UtpshO9xt-77" edge="1">
          <mxGeometry relative="1" as="geometry">
            <Array as="points">
              <mxPoint x="742" y="1150" />
              <mxPoint x="742" y="1150" />
            </Array>
          </mxGeometry>
        </mxCell>
        <mxCell id="Gvq7CTQBBd0UtpshO9xt-89" value="1&#39;h0" style="text;html=1;align=center;verticalAlign=middle;resizable=0;points=[];autosize=1;strokeColor=none;fillColor=none;" parent="1" vertex="1">
          <mxGeometry x="720" y="1110" width="40" height="20" as="geometry" />
        </mxCell>
        <mxCell id="Gvq7CTQBBd0UtpshO9xt-91" value="l_shift[14,0], 1&#39;h0" style="text;html=1;align=center;verticalAlign=middle;resizable=0;points=[];autosize=1;strokeColor=none;fillColor=none;" parent="1" vertex="1">
          <mxGeometry x="675" y="1230" width="110" height="20" as="geometry" />
        </mxCell>
        <mxCell id="Gvq7CTQBBd0UtpshO9xt-92" value="1&lt;span style=&quot;white-space: pre&quot;&gt; &lt;span style=&quot;white-space: pre&quot;&gt; &lt;/span&gt;0&lt;/span&gt;" style="shape=trapezoid;perimeter=trapezoidPerimeter;whiteSpace=wrap;html=1;fixedSize=1;direction=west;" parent="1" vertex="1">
          <mxGeometry x="705" y="1488" width="120" height="60" as="geometry" />
        </mxCell>
        <mxCell id="Gvq7CTQBBd0UtpshO9xt-93" value="" style="edgeStyle=orthogonalEdgeStyle;rounded=0;orthogonalLoop=1;jettySize=auto;html=1;entryX=0.75;entryY=1;entryDx=0;entryDy=0;" parent="1" source="Gvq7CTQBBd0UtpshO9xt-94" target="Gvq7CTQBBd0UtpshO9xt-92" edge="1">
          <mxGeometry relative="1" as="geometry" />
        </mxCell>
        <mxCell id="Gvq7CTQBBd0UtpshO9xt-94" value="1&lt;span style=&quot;white-space: pre&quot;&gt; &lt;/span&gt;&lt;span style=&quot;white-space: pre&quot;&gt; &lt;/span&gt;0" style="shape=trapezoid;perimeter=trapezoidPerimeter;whiteSpace=wrap;html=1;fixedSize=1;direction=west;" parent="1" vertex="1">
          <mxGeometry x="675" y="1398" width="120" height="60" as="geometry" />
        </mxCell>
        <mxCell id="Gvq7CTQBBd0UtpshO9xt-95" value="" style="edgeStyle=orthogonalEdgeStyle;rounded=0;orthogonalLoop=1;jettySize=auto;html=1;" parent="1" source="Gvq7CTQBBd0UtpshO9xt-92" target="Gvq7CTQBBd0UtpshO9xt-96" edge="1">
          <mxGeometry relative="1" as="geometry" />
        </mxCell>
        <mxCell id="Gvq7CTQBBd0UtpshO9xt-96" value="l_shift2" style="text;html=1;align=center;verticalAlign=middle;resizable=0;points=[];autosize=1;strokeColor=none;fillColor=none;" parent="1" vertex="1">
          <mxGeometry x="740" y="1588" width="50" height="20" as="geometry" />
        </mxCell>
        <mxCell id="Gvq7CTQBBd0UtpshO9xt-97" value="" style="edgeStyle=orthogonalEdgeStyle;rounded=0;orthogonalLoop=1;jettySize=auto;html=1;strokeWidth=1;exitX=0.544;exitY=0.952;exitDx=0;exitDy=0;exitPerimeter=0;" parent="1" source="Gvq7CTQBBd0UtpshO9xt-79" edge="1">
          <mxGeometry relative="1" as="geometry">
            <mxPoint x="800" y="1490" as="targetPoint" />
            <mxPoint x="805.0000000000002" y="1470" as="sourcePoint" />
            <Array as="points">
              <mxPoint x="812" y="1434" />
              <mxPoint x="800" y="1434" />
              <mxPoint x="800" y="1490" />
            </Array>
          </mxGeometry>
        </mxCell>
        <mxCell id="Gvq7CTQBBd0UtpshO9xt-99" style="edgeStyle=orthogonalEdgeStyle;rounded=0;orthogonalLoop=1;jettySize=auto;html=1;strokeWidth=1;" parent="1" source="Gvq7CTQBBd0UtpshO9xt-100" edge="1">
          <mxGeometry relative="1" as="geometry">
            <mxPoint x="765" y="1400" as="targetPoint" />
            <Array as="points">
              <mxPoint x="765" y="1400" />
            </Array>
          </mxGeometry>
        </mxCell>
        <mxCell id="Gvq7CTQBBd0UtpshO9xt-100" value="l_shift0[15:14]" style="text;html=1;align=center;verticalAlign=middle;resizable=0;points=[];autosize=1;strokeColor=none;fillColor=none;" parent="1" vertex="1">
          <mxGeometry x="720" y="1340" width="90" height="20" as="geometry" />
        </mxCell>
        <mxCell id="Gvq7CTQBBd0UtpshO9xt-101" value="" style="edgeStyle=orthogonalEdgeStyle;rounded=0;orthogonalLoop=1;jettySize=auto;html=1;strokeWidth=1;entryX=0.813;entryY=1.037;entryDx=0;entryDy=0;entryPerimeter=0;" parent="1" source="Gvq7CTQBBd0UtpshO9xt-102" target="Gvq7CTQBBd0UtpshO9xt-94" edge="1">
          <mxGeometry relative="1" as="geometry">
            <Array as="points">
              <mxPoint x="697" y="1380" />
              <mxPoint x="697" y="1380" />
            </Array>
          </mxGeometry>
        </mxCell>
        <mxCell id="Gvq7CTQBBd0UtpshO9xt-102" value="2&#39;h0" style="text;html=1;align=center;verticalAlign=middle;resizable=0;points=[];autosize=1;strokeColor=none;fillColor=none;" parent="1" vertex="1">
          <mxGeometry x="675" y="1340" width="40" height="20" as="geometry" />
        </mxCell>
        <mxCell id="Gvq7CTQBBd0UtpshO9xt-103" value="l_shift[13,0], 2&#39;h0" style="text;html=1;align=center;verticalAlign=middle;resizable=0;points=[];autosize=1;strokeColor=none;fillColor=none;" parent="1" vertex="1">
          <mxGeometry x="630" y="1460" width="110" height="20" as="geometry" />
        </mxCell>
        <mxCell id="Gvq7CTQBBd0UtpshO9xt-105" value="1&lt;span style=&quot;white-space: pre&quot;&gt; &lt;span style=&quot;white-space: pre&quot;&gt; &lt;/span&gt;0&lt;/span&gt;" style="shape=trapezoid;perimeter=trapezoidPerimeter;whiteSpace=wrap;html=1;fixedSize=1;direction=west;" parent="1" vertex="1">
          <mxGeometry x="660" y="1718" width="120" height="60" as="geometry" />
        </mxCell>
        <mxCell id="Gvq7CTQBBd0UtpshO9xt-106" value="" style="edgeStyle=orthogonalEdgeStyle;rounded=0;orthogonalLoop=1;jettySize=auto;html=1;entryX=0.75;entryY=1;entryDx=0;entryDy=0;" parent="1" source="Gvq7CTQBBd0UtpshO9xt-107" target="Gvq7CTQBBd0UtpshO9xt-105" edge="1">
          <mxGeometry relative="1" as="geometry" />
        </mxCell>
        <mxCell id="Gvq7CTQBBd0UtpshO9xt-107" value="1&lt;span style=&quot;white-space: pre&quot;&gt; &lt;/span&gt;&lt;span style=&quot;white-space: pre&quot;&gt; &lt;/span&gt;0" style="shape=trapezoid;perimeter=trapezoidPerimeter;whiteSpace=wrap;html=1;fixedSize=1;direction=west;" parent="1" vertex="1">
          <mxGeometry x="630" y="1628" width="120" height="60" as="geometry" />
        </mxCell>
        <mxCell id="Gvq7CTQBBd0UtpshO9xt-108" value="" style="edgeStyle=orthogonalEdgeStyle;rounded=0;orthogonalLoop=1;jettySize=auto;html=1;" parent="1" source="Gvq7CTQBBd0UtpshO9xt-105" target="Gvq7CTQBBd0UtpshO9xt-109" edge="1">
          <mxGeometry relative="1" as="geometry" />
        </mxCell>
        <mxCell id="Gvq7CTQBBd0UtpshO9xt-109" value="l_shift4" style="text;html=1;align=center;verticalAlign=middle;resizable=0;points=[];autosize=1;strokeColor=none;fillColor=none;" parent="1" vertex="1">
          <mxGeometry x="695" y="1818" width="50" height="20" as="geometry" />
        </mxCell>
        <mxCell id="Gvq7CTQBBd0UtpshO9xt-110" value="" style="edgeStyle=orthogonalEdgeStyle;rounded=0;orthogonalLoop=1;jettySize=auto;html=1;strokeWidth=1;exitX=0.544;exitY=0.952;exitDx=0;exitDy=0;exitPerimeter=0;" parent="1" edge="1">
          <mxGeometry relative="1" as="geometry">
            <mxPoint x="755" y="1720" as="targetPoint" />
            <mxPoint x="767.2" y="1607.04" as="sourcePoint" />
            <Array as="points">
              <mxPoint x="767" y="1664" />
              <mxPoint x="755" y="1664" />
              <mxPoint x="755" y="1720" />
            </Array>
          </mxGeometry>
        </mxCell>
        <mxCell id="Gvq7CTQBBd0UtpshO9xt-111" style="edgeStyle=orthogonalEdgeStyle;rounded=0;orthogonalLoop=1;jettySize=auto;html=1;strokeWidth=1;" parent="1" source="Gvq7CTQBBd0UtpshO9xt-112" edge="1">
          <mxGeometry relative="1" as="geometry">
            <mxPoint x="720" y="1630" as="targetPoint" />
            <Array as="points">
              <mxPoint x="720" y="1630" />
            </Array>
          </mxGeometry>
        </mxCell>
        <mxCell id="Gvq7CTQBBd0UtpshO9xt-112" value="l_shift0[15:12]" style="text;html=1;align=center;verticalAlign=middle;resizable=0;points=[];autosize=1;strokeColor=none;fillColor=none;" parent="1" vertex="1">
          <mxGeometry x="675" y="1570" width="90" height="20" as="geometry" />
        </mxCell>
        <mxCell id="Gvq7CTQBBd0UtpshO9xt-113" value="" style="edgeStyle=orthogonalEdgeStyle;rounded=0;orthogonalLoop=1;jettySize=auto;html=1;strokeWidth=1;entryX=0.813;entryY=1.037;entryDx=0;entryDy=0;entryPerimeter=0;" parent="1" source="Gvq7CTQBBd0UtpshO9xt-114" target="Gvq7CTQBBd0UtpshO9xt-107" edge="1">
          <mxGeometry relative="1" as="geometry">
            <Array as="points">
              <mxPoint x="652" y="1610" />
              <mxPoint x="652" y="1610" />
            </Array>
          </mxGeometry>
        </mxCell>
        <mxCell id="Gvq7CTQBBd0UtpshO9xt-114" value="4&#39;h0" style="text;html=1;align=center;verticalAlign=middle;resizable=0;points=[];autosize=1;strokeColor=none;fillColor=none;" parent="1" vertex="1">
          <mxGeometry x="630" y="1570" width="40" height="20" as="geometry" />
        </mxCell>
        <mxCell id="Gvq7CTQBBd0UtpshO9xt-115" value="l_shift[11,0], 4&#39;h0" style="text;html=1;align=center;verticalAlign=middle;resizable=0;points=[];autosize=1;strokeColor=none;fillColor=none;" parent="1" vertex="1">
          <mxGeometry x="585" y="1688" width="100" height="20" as="geometry" />
        </mxCell>
        <mxCell id="Gvq7CTQBBd0UtpshO9xt-117" value="1&lt;span style=&quot;white-space: pre&quot;&gt; &lt;span style=&quot;white-space: pre&quot;&gt; &lt;/span&gt;0&lt;/span&gt;" style="shape=trapezoid;perimeter=trapezoidPerimeter;whiteSpace=wrap;html=1;fixedSize=1;direction=west;" parent="1" vertex="1">
          <mxGeometry x="610" y="1948" width="120" height="60" as="geometry" />
        </mxCell>
        <mxCell id="Gvq7CTQBBd0UtpshO9xt-118" value="" style="edgeStyle=orthogonalEdgeStyle;rounded=0;orthogonalLoop=1;jettySize=auto;html=1;entryX=0.75;entryY=1;entryDx=0;entryDy=0;" parent="1" source="Gvq7CTQBBd0UtpshO9xt-119" target="Gvq7CTQBBd0UtpshO9xt-117" edge="1">
          <mxGeometry relative="1" as="geometry" />
        </mxCell>
        <mxCell id="Gvq7CTQBBd0UtpshO9xt-119" value="1&lt;span style=&quot;white-space: pre&quot;&gt; &lt;/span&gt;&lt;span style=&quot;white-space: pre&quot;&gt; &lt;/span&gt;0" style="shape=trapezoid;perimeter=trapezoidPerimeter;whiteSpace=wrap;html=1;fixedSize=1;direction=west;" parent="1" vertex="1">
          <mxGeometry x="580" y="1858" width="120" height="60" as="geometry" />
        </mxCell>
        <mxCell id="Gvq7CTQBBd0UtpshO9xt-120" value="" style="edgeStyle=orthogonalEdgeStyle;rounded=0;orthogonalLoop=1;jettySize=auto;html=1;" parent="1" source="Gvq7CTQBBd0UtpshO9xt-117" target="Gvq7CTQBBd0UtpshO9xt-121" edge="1">
          <mxGeometry relative="1" as="geometry" />
        </mxCell>
        <mxCell id="Gvq7CTQBBd0UtpshO9xt-121" value="l_shift8" style="text;html=1;align=center;verticalAlign=middle;resizable=0;points=[];autosize=1;strokeColor=none;fillColor=none;" parent="1" vertex="1">
          <mxGeometry x="645" y="2048" width="50" height="20" as="geometry" />
        </mxCell>
        <mxCell id="Gvq7CTQBBd0UtpshO9xt-122" value="" style="edgeStyle=orthogonalEdgeStyle;rounded=0;orthogonalLoop=1;jettySize=auto;html=1;strokeWidth=1;exitX=0.544;exitY=0.952;exitDx=0;exitDy=0;exitPerimeter=0;" parent="1" edge="1">
          <mxGeometry relative="1" as="geometry">
            <mxPoint x="705" y="1950" as="targetPoint" />
            <mxPoint x="717.2" y="1837.04" as="sourcePoint" />
            <Array as="points">
              <mxPoint x="717" y="1894" />
              <mxPoint x="705" y="1894" />
              <mxPoint x="705" y="1950" />
            </Array>
          </mxGeometry>
        </mxCell>
        <mxCell id="Gvq7CTQBBd0UtpshO9xt-123" style="edgeStyle=orthogonalEdgeStyle;rounded=0;orthogonalLoop=1;jettySize=auto;html=1;strokeWidth=1;" parent="1" source="Gvq7CTQBBd0UtpshO9xt-124" edge="1">
          <mxGeometry relative="1" as="geometry">
            <mxPoint x="670" y="1860" as="targetPoint" />
            <Array as="points">
              <mxPoint x="670" y="1860" />
            </Array>
          </mxGeometry>
        </mxCell>
        <mxCell id="Gvq7CTQBBd0UtpshO9xt-124" value="l_shift0[15:8]" style="text;html=1;align=center;verticalAlign=middle;resizable=0;points=[];autosize=1;strokeColor=none;fillColor=none;" parent="1" vertex="1">
          <mxGeometry x="630" y="1800" width="80" height="20" as="geometry" />
        </mxCell>
        <mxCell id="Gvq7CTQBBd0UtpshO9xt-125" value="" style="edgeStyle=orthogonalEdgeStyle;rounded=0;orthogonalLoop=1;jettySize=auto;html=1;strokeWidth=1;entryX=0.813;entryY=1.037;entryDx=0;entryDy=0;entryPerimeter=0;" parent="1" source="Gvq7CTQBBd0UtpshO9xt-126" target="Gvq7CTQBBd0UtpshO9xt-119" edge="1">
          <mxGeometry relative="1" as="geometry">
            <Array as="points">
              <mxPoint x="602" y="1840" />
              <mxPoint x="602" y="1840" />
            </Array>
          </mxGeometry>
        </mxCell>
        <mxCell id="Gvq7CTQBBd0UtpshO9xt-126" value="8&#39;h0" style="text;html=1;align=center;verticalAlign=middle;resizable=0;points=[];autosize=1;strokeColor=none;fillColor=none;" parent="1" vertex="1">
          <mxGeometry x="580" y="1800" width="40" height="20" as="geometry" />
        </mxCell>
        <mxCell id="Gvq7CTQBBd0UtpshO9xt-127" value="l_shift[7,0], 8&#39;h0" style="text;html=1;align=center;verticalAlign=middle;resizable=0;points=[];autosize=1;strokeColor=none;fillColor=none;" parent="1" vertex="1">
          <mxGeometry x="525" y="1928" width="100" height="20" as="geometry" />
        </mxCell>
        <mxCell id="Gvq7CTQBBd0UtpshO9xt-128" value="1&lt;span style=&quot;white-space: pre&quot;&gt; &lt;span style=&quot;white-space: pre&quot;&gt; &lt;/span&gt;0&lt;/span&gt;" style="shape=trapezoid;perimeter=trapezoidPerimeter;whiteSpace=wrap;html=1;fixedSize=1;direction=west;" parent="1" vertex="1">
          <mxGeometry x="450" y="2120" width="120" height="60" as="geometry" />
        </mxCell>
        <mxCell id="Gvq7CTQBBd0UtpshO9xt-129" value="" style="endArrow=classic;html=1;rounded=0;strokeWidth=1;exitX=0.523;exitY=1.207;exitDx=0;exitDy=0;exitPerimeter=0;entryX=0.75;entryY=1;entryDx=0;entryDy=0;" parent="1" source="Gvq7CTQBBd0UtpshO9xt-60" target="Gvq7CTQBBd0UtpshO9xt-128" edge="1">
          <mxGeometry width="50" height="50" relative="1" as="geometry">
            <mxPoint x="590" y="1880" as="sourcePoint" />
            <mxPoint x="640" y="1830" as="targetPoint" />
            <Array as="points">
              <mxPoint x="360" y="1940" />
              <mxPoint x="480" y="1940" />
            </Array>
          </mxGeometry>
        </mxCell>
        <mxCell id="Gvq7CTQBBd0UtpshO9xt-130" value="" style="endArrow=classic;html=1;rounded=0;strokeWidth=1;entryX=0.25;entryY=1;entryDx=0;entryDy=0;exitX=0;exitY=0.517;exitDx=0;exitDy=0;exitPerimeter=0;" parent="1" source="Gvq7CTQBBd0UtpshO9xt-121" target="Gvq7CTQBBd0UtpshO9xt-128" edge="1">
          <mxGeometry width="50" height="50" relative="1" as="geometry">
            <mxPoint x="540" y="2060" as="sourcePoint" />
            <mxPoint x="600" y="2060" as="targetPoint" />
            <Array as="points">
              <mxPoint x="540" y="2058" />
            </Array>
          </mxGeometry>
        </mxCell>
        <mxCell id="Gvq7CTQBBd0UtpshO9xt-131" value="" style="endArrow=classic;html=1;rounded=0;strokeWidth=1;entryX=1;entryY=0.5;entryDx=0;entryDy=0;" parent="1" target="Gvq7CTQBBd0UtpshO9xt-128" edge="1">
          <mxGeometry width="50" height="50" relative="1" as="geometry">
            <mxPoint x="350" y="2150" as="sourcePoint" />
            <mxPoint x="450" y="2170" as="targetPoint" />
          </mxGeometry>
        </mxCell>
        <mxCell id="Gvq7CTQBBd0UtpshO9xt-132" value="Oper[1]" style="text;html=1;align=center;verticalAlign=middle;resizable=0;points=[];autosize=1;strokeColor=none;fillColor=none;" parent="1" vertex="1">
          <mxGeometry x="330" y="2120" width="60" height="20" as="geometry" />
        </mxCell>
        <mxCell id="Gvq7CTQBBd0UtpshO9xt-133" value="" style="endArrow=none;html=1;rounded=0;strokeWidth=6;" parent="1" edge="1">
          <mxGeometry width="50" height="50" relative="1" as="geometry">
            <mxPoint x="80" y="260" as="sourcePoint" />
            <mxPoint x="280" y="1288" as="targetPoint" />
            <Array as="points">
              <mxPoint x="80" y="1288" />
            </Array>
          </mxGeometry>
        </mxCell>
        <mxCell id="Gvq7CTQBBd0UtpshO9xt-134" value="" style="endArrow=none;html=1;rounded=0;strokeWidth=1;entryX=1;entryY=0.5;entryDx=0;entryDy=0;" parent="1" target="Gvq7CTQBBd0UtpshO9xt-75" edge="1">
          <mxGeometry width="50" height="50" relative="1" as="geometry">
            <mxPoint x="170" y="1290" as="sourcePoint" />
            <mxPoint x="300" y="1280" as="targetPoint" />
          </mxGeometry>
        </mxCell>
        <mxCell id="Gvq7CTQBBd0UtpshO9xt-135" value="" style="endArrow=classic;html=1;rounded=0;strokeWidth=1;entryX=1;entryY=0.5;entryDx=0;entryDy=0;" parent="1" target="Gvq7CTQBBd0UtpshO9xt-92" edge="1">
          <mxGeometry width="50" height="50" relative="1" as="geometry">
            <mxPoint x="200" y="1290" as="sourcePoint" />
            <mxPoint x="320" y="1440" as="targetPoint" />
            <Array as="points">
              <mxPoint x="200" y="1518" />
            </Array>
          </mxGeometry>
        </mxCell>
        <mxCell id="Gvq7CTQBBd0UtpshO9xt-136" value="" style="endArrow=classic;html=1;rounded=0;strokeWidth=1;entryX=1;entryY=0.5;entryDx=0;entryDy=0;" parent="1" edge="1">
          <mxGeometry width="50" height="50" relative="1" as="geometry">
            <mxPoint x="240" y="1290" as="sourcePoint" />
            <mxPoint x="675" y="1757.9999999999995" as="targetPoint" />
            <Array as="points">
              <mxPoint x="240" y="1758" />
            </Array>
          </mxGeometry>
        </mxCell>
        <mxCell id="Gvq7CTQBBd0UtpshO9xt-137" value="" style="endArrow=classic;html=1;rounded=0;strokeWidth=1;entryX=1;entryY=0.5;entryDx=0;entryDy=0;" parent="1" edge="1">
          <mxGeometry width="50" height="50" relative="1" as="geometry">
            <mxPoint x="280" y="1290" as="sourcePoint" />
            <mxPoint x="620" y="1981.9999999999995" as="targetPoint" />
            <Array as="points">
              <mxPoint x="280" y="1982" />
            </Array>
          </mxGeometry>
        </mxCell>
        <mxCell id="Gvq7CTQBBd0UtpshO9xt-139" value="" style="endArrow=classic;html=1;rounded=0;strokeWidth=1;entryX=1;entryY=0.5;entryDx=0;entryDy=0;" parent="1" target="Gvq7CTQBBd0UtpshO9xt-94" edge="1">
          <mxGeometry width="50" height="50" relative="1" as="geometry">
            <mxPoint x="600" y="1200" as="sourcePoint" />
            <mxPoint x="725" y="1528" as="targetPoint" />
            <Array as="points">
              <mxPoint x="600" y="1428" />
            </Array>
          </mxGeometry>
        </mxCell>
        <mxCell id="Gvq7CTQBBd0UtpshO9xt-140" value="" style="endArrow=classic;html=1;rounded=0;strokeWidth=1;entryX=1;entryY=0.5;entryDx=0;entryDy=0;" parent="1" edge="1">
          <mxGeometry width="50" height="50" relative="1" as="geometry">
            <mxPoint x="558" y="1200" as="sourcePoint" />
            <mxPoint x="642.5" y="1658" as="targetPoint" />
            <Array as="points">
              <mxPoint x="557.5" y="1658" />
            </Array>
          </mxGeometry>
        </mxCell>
        <mxCell id="Gvq7CTQBBd0UtpshO9xt-142" value="" style="endArrow=classic;html=1;rounded=0;strokeWidth=1;" parent="1" edge="1">
          <mxGeometry width="50" height="50" relative="1" as="geometry">
            <mxPoint x="520" y="1200" as="sourcePoint" />
            <mxPoint x="595" y="1898" as="targetPoint" />
            <Array as="points">
              <mxPoint x="520" y="1898" />
            </Array>
          </mxGeometry>
        </mxCell>
        <mxCell id="Gvq7CTQBBd0UtpshO9xt-144" value="" style="edgeStyle=orthogonalEdgeStyle;rounded=0;orthogonalLoop=1;jettySize=auto;html=1;strokeWidth=1;" parent="1" source="Gvq7CTQBBd0UtpshO9xt-128" target="Gvq7CTQBBd0UtpshO9xt-143" edge="1">
          <mxGeometry relative="1" as="geometry" />
        </mxCell>
        <mxCell id="Gvq7CTQBBd0UtpshO9xt-143" value="Out" style="text;html=1;align=center;verticalAlign=middle;resizable=0;points=[];autosize=1;strokeColor=none;fillColor=none;" parent="1" vertex="1">
          <mxGeometry x="495" y="2230" width="30" height="20" as="geometry" />
        </mxCell>
        <mxCell id="Gvq7CTQBBd0UtpshO9xt-145" value="&lt;span style=&quot;color: rgb(0 , 0 , 0) ; font-family: &amp;#34;helvetica&amp;#34; ; font-size: 12px ; font-style: normal ; font-weight: 400 ; letter-spacing: normal ; text-align: center ; text-indent: 0px ; text-transform: none ; word-spacing: 0px ; background-color: rgb(248 , 249 , 250) ; display: inline ; float: none&quot;&gt;ShAmt[0]&lt;/span&gt;" style="text;whiteSpace=wrap;html=1;" parent="1" vertex="1">
          <mxGeometry x="650" y="1258" width="70" height="30" as="geometry" />
        </mxCell>
        <mxCell id="Gvq7CTQBBd0UtpshO9xt-146" value="&lt;span style=&quot;color: rgb(0 , 0 , 0) ; font-family: &amp;#34;helvetica&amp;#34; ; font-size: 12px ; font-style: normal ; font-weight: 400 ; letter-spacing: normal ; text-align: center ; text-indent: 0px ; text-transform: none ; word-spacing: 0px ; background-color: rgb(248 , 249 , 250) ; display: inline ; float: none&quot;&gt;ShAmt[1]&lt;/span&gt;" style="text;whiteSpace=wrap;html=1;" parent="1" vertex="1">
          <mxGeometry x="585" y="1488" width="70" height="30" as="geometry" />
        </mxCell>
        <mxCell id="Gvq7CTQBBd0UtpshO9xt-147" value="&lt;span style=&quot;color: rgb(0 , 0 , 0) ; font-family: &amp;#34;helvetica&amp;#34; ; font-size: 12px ; font-style: normal ; font-weight: 400 ; letter-spacing: normal ; text-align: center ; text-indent: 0px ; text-transform: none ; word-spacing: 0px ; background-color: rgb(248 , 249 , 250) ; display: inline ; float: none&quot;&gt;ShAmt[2]&lt;/span&gt;" style="text;whiteSpace=wrap;html=1;" parent="1" vertex="1">
          <mxGeometry x="550" y="1730" width="70" height="30" as="geometry" />
        </mxCell>
        <mxCell id="Gvq7CTQBBd0UtpshO9xt-148" value="&lt;span style=&quot;color: rgb(0 , 0 , 0) ; font-family: &amp;#34;helvetica&amp;#34; ; font-size: 12px ; font-style: normal ; font-weight: 400 ; letter-spacing: normal ; text-align: center ; text-indent: 0px ; text-transform: none ; word-spacing: 0px ; background-color: rgb(248 , 249 , 250) ; display: inline ; float: none&quot;&gt;ShAmt[3]&lt;/span&gt;" style="text;whiteSpace=wrap;html=1;" parent="1" vertex="1">
          <mxGeometry x="510" y="1948" width="70" height="30" as="geometry" />
        </mxCell>
      </root>
    </mxGraphModel>
  </diagram>
</mxfile>
